<svg xmlns="http://www.w3.org/2000/svg" xmlns:xlink="http://www.w3.org/1999/xlink" width="500" zoomAndPan="magnify" viewBox="0 0 375 149.999998" height="200" preserveAspectRatio="xMidYMid meet" version="1.0"><defs><g/><clipPath id="8ae095efd2"><path d="M 9.578125 27.722656 L 113.140625 27.722656 L 113.140625 120.734375 L 9.578125 120.734375 Z M 9.578125 27.722656 " clip-rule="nonzero"/></clipPath><clipPath id="0e91d1779e"><path d="M 0.00390625 18.285156 L 374.996094 18.285156 L 374.996094 131.535156 L 0.00390625 131.535156 Z M 0.00390625 18.285156 " clip-rule="nonzero"/></clipPath></defs><g clip-path="url(#8ae095efd2)"><path fill="#000000" d="M 9.578125 27.722656 L 113.140625 27.722656 L 113.140625 120.734375 L 9.578125 120.734375 Z M 9.578125 27.722656 " fill-opacity="1" fill-rule="nonzero"/></g><g fill="#ffffff" fill-opacity="1"><g transform="translate(16.000164, 96.864997)"><g><path d="M 7.207031 0 L 37.441406 0 L 37.441406 -5.933594 L 13.421875 -5.933594 L 13.421875 -49.449219 L 7.207031 -49.449219 Z M 7.207031 0 "/></g></g></g><g fill="#ffffff" fill-opacity="1"><g transform="translate(60.987011, 96.864997)"><g><path d="M 23.664062 0.917969 C 34.472656 0.917969 41.46875 -4.378906 41.46875 -13 C 41.46875 -20.273438 36.59375 -24.65625 23.949219 -27.761719 C 14.339844 -30.09375 11.160156 -32.636719 11.160156 -36.734375 C 11.160156 -41.46875 15.398438 -44.433594 22.464844 -44.433594 C 29.742188 -44.433594 34.261719 -40.761719 34.402344 -34.828125 L 40.550781 -34.828125 C 40.480469 -44.433594 33.554688 -50.367188 22.464844 -50.367188 C 11.65625 -50.367188 4.804688 -45.070312 4.804688 -36.734375 C 4.804688 -29.105469 10.242188 -24.867188 22.394531 -21.96875 C 31.296875 -19.851562 35.039062 -17.378906 35.039062 -12.785156 C 35.039062 -7.910156 30.660156 -5.015625 23.664062 -5.015625 C 15.964844 -5.015625 10.597656 -8.832031 10.457031 -15.1875 L 4.238281 -15.1875 C 4.308594 -5.511719 11.867188 0.917969 23.664062 0.917969 Z M 23.664062 0.917969 "/></g></g></g><g clip-path="url(#0e91d1779e)"><path stroke-linecap="butt" transform="matrix(0.75, 0, 0, 0.75, 0.00354791, 18.286041)" fill="none" stroke-linejoin="miter" d="M 0.000477786 -0.00117947 L 499.990058 -0.00117947 L 499.990058 151.233195 L 0.000477786 151.233195 Z M 0.000477786 -0.00117947 " stroke="#000000" stroke-width="4" stroke-opacity="1" stroke-miterlimit="4"/></g><g fill="#000000" fill-opacity="1"><g transform="translate(117.849737, 98.313902)"><g><path d="M 5.226562 0 L 19.355469 0 L 19.355469 -25.078125 L 28.890625 -11.726562 L 38.144531 -11.726562 L 47.613281 -25.007812 L 47.613281 0 L 61.742188 0 L 61.742188 -49.449219 L 50.15625 -49.449219 L 33.484375 -25.925781 L 16.882812 -49.449219 L 5.226562 -49.449219 Z M 5.226562 0 "/></g></g></g><g fill="#000000" fill-opacity="1"><g transform="translate(184.813632, 98.313902)"><g><path d="M 26.492188 1.058594 C 39.839844 1.058594 48.105469 -7.0625 48.105469 -20.34375 L 48.105469 -49.449219 L 33.90625 -49.449219 L 33.90625 -21.261719 C 33.90625 -15.398438 31.433594 -12.292969 26.492188 -12.292969 C 21.546875 -12.292969 19.074219 -15.398438 19.074219 -21.261719 L 19.074219 -49.449219 L 4.804688 -49.449219 L 4.804688 -20.34375 C 4.804688 -7.0625 13.140625 1.058594 26.492188 1.058594 Z M 26.492188 1.058594 "/></g></g></g><g fill="#000000" fill-opacity="1"><g transform="translate(237.791403, 98.313902)"><g><path d="M 22.957031 1.058594 C 35.25 1.058594 42.527344 -4.734375 42.527344 -14.480469 C 42.527344 -22.675781 37.226562 -27.480469 25.21875 -30.164062 C 18.859375 -31.578125 16.53125 -33.128906 16.53125 -35.671875 C 16.53125 -38.074219 18.648438 -39.558594 21.96875 -39.558594 C 25.925781 -39.558594 28.1875 -37.511719 28.1875 -33.765625 L 41.609375 -33.765625 C 41.609375 -43.9375 33.835938 -50.507812 21.6875 -50.507812 C 10.03125 -50.507812 2.824219 -44.714844 2.824219 -35.390625 C 2.824219 -27.054688 8.265625 -21.898438 19.425781 -19.78125 C 25.429688 -18.578125 28.328125 -16.742188 28.328125 -13.917969 C 28.328125 -11.445312 26.207031 -10.03125 22.746094 -10.03125 C 18.648438 -10.03125 16.246094 -12.222656 16.246094 -16.035156 L 2.472656 -16.035156 C 2.472656 -5.367188 10.101562 1.058594 22.957031 1.058594 Z M 22.957031 1.058594 "/></g></g></g><g fill="#000000" fill-opacity="1"><g transform="translate(282.928461, 98.313902)"><g><path d="M 5.226562 0 L 19.496094 0 L 19.496094 -49.449219 L 5.226562 -49.449219 Z M 5.226562 0 "/></g></g></g><g fill="#000000" fill-opacity="1"><g transform="translate(307.651427, 98.313902)"><g><path d="M 28.328125 1.058594 C 41.960938 1.058594 52.273438 -7.207031 54.394531 -19.78125 L 39.914062 -19.78125 C 38.144531 -15.117188 33.976562 -12.148438 28.609375 -12.148438 C 21.6875 -12.148438 16.882812 -17.308594 16.882812 -24.722656 C 16.882812 -32.210938 21.757812 -37.296875 28.75 -37.296875 C 33.90625 -37.296875 38.21875 -34.402344 39.699219 -29.953125 L 54.109375 -29.953125 C 51.566406 -42.457031 41.394531 -50.507812 28.1875 -50.507812 C 12.925781 -50.507812 2.402344 -39.984375 2.402344 -24.722656 C 2.402344 -9.464844 12.925781 1.058594 28.328125 1.058594 Z M 28.328125 1.058594 "/></g></g></g></svg>