<svg xmlns="http://www.w3.org/2000/svg" xmlns:xlink="http://www.w3.org/1999/xlink" width="500" zoomAndPan="magnify" viewBox="0 0 375 149.999998" height="200" preserveAspectRatio="xMidYMid meet" version="1.0"><defs><g/><clipPath id="c3ba3b54f0"><path d="M 0.914062 15 L 374.980469 15 L 374.980469 133.5 L 0.914062 133.5 Z M 0.914062 15 " clip-rule="nonzero"/></clipPath><clipPath id="d726cbce5f"><path d="M 8.414062 22.285156 L 113.375 22.285156 L 113.375 126.328125 L 8.414062 126.328125 Z M 8.414062 22.285156 " clip-rule="nonzero"/></clipPath></defs><g clip-path="url(#c3ba3b54f0)"><path stroke-linecap="butt" transform="matrix(0.75, 0, 0, 0.75, 0.914832, 15.000001)" fill="none" stroke-linejoin="miter" d="M -0.00102597 -0.0000015 L 498.754243 -0.0000015 L 498.754243 158.140643 L -0.00102597 158.140643 Z M -0.00102597 -0.0000015 " stroke="#000000" stroke-width="4" stroke-opacity="1" stroke-miterlimit="4"/></g><g clip-path="url(#d726cbce5f)"><path fill="#000000" d="M 8.414062 22.285156 L 113.375 22.285156 L 113.375 126.328125 L 8.414062 126.328125 Z M 8.414062 22.285156 " fill-opacity="1" fill-rule="nonzero"/></g><g fill="#ffffff" fill-opacity="1"><g transform="translate(20.16722, 94.631751)"><g><path d="M 6.46875 0 L 33.617188 0 L 33.617188 -5.328125 L 12.050781 -5.328125 L 12.050781 -44.398438 L 6.46875 -44.398438 Z M 6.46875 0 "/></g></g></g><g fill="#ffffff" fill-opacity="1"><g transform="translate(60.559195, 94.631751)"><g><path d="M 21.25 0.824219 C 30.953125 0.824219 37.230469 -3.933594 37.230469 -11.671875 C 37.230469 -18.203125 32.855469 -22.136719 21.503906 -24.925781 C 12.875 -27.019531 10.023438 -29.304688 10.023438 -32.984375 C 10.023438 -37.230469 13.828125 -39.894531 20.171875 -39.894531 C 26.703125 -39.894531 30.761719 -36.597656 30.890625 -31.269531 L 36.40625 -31.269531 C 36.34375 -39.894531 30.128906 -45.222656 20.171875 -45.222656 C 10.464844 -45.222656 4.3125 -40.46875 4.3125 -32.984375 C 4.3125 -26.132812 9.195312 -22.328125 20.105469 -19.726562 C 28.097656 -17.824219 31.460938 -15.601562 31.460938 -11.480469 C 31.460938 -7.105469 27.527344 -4.503906 21.25 -4.503906 C 14.335938 -4.503906 9.515625 -7.929688 9.386719 -13.636719 L 3.804688 -13.636719 C 3.867188 -4.949219 10.65625 0.824219 21.25 0.824219 Z M 21.25 0.824219 "/></g></g></g><g fill="#000000" fill-opacity="1"><g transform="translate(132.670492, 94.973315)"><g><path d="M 4.695312 0 L 17.378906 0 L 17.378906 -22.515625 L 25.941406 -10.527344 L 34.25 -10.527344 L 42.75 -22.453125 L 42.75 0 L 55.433594 0 L 55.433594 -44.398438 L 45.03125 -44.398438 L 30.0625 -23.277344 L 15.160156 -44.398438 L 4.695312 -44.398438 Z M 4.695312 0 "/></g></g></g><g fill="#000000" fill-opacity="1"><g transform="translate(192.794818, 94.973315)"><g><path d="M 23.785156 0.953125 C 35.773438 0.953125 43.191406 -6.34375 43.191406 -18.265625 L 43.191406 -44.398438 L 30.445312 -44.398438 L 30.445312 -19.089844 C 30.445312 -13.828125 28.222656 -11.035156 23.785156 -11.035156 C 19.34375 -11.035156 17.125 -13.828125 17.125 -19.089844 L 17.125 -44.398438 L 4.3125 -44.398438 L 4.3125 -18.265625 C 4.3125 -6.34375 11.796875 0.953125 23.785156 0.953125 Z M 23.785156 0.953125 "/></g></g></g><g fill="#000000" fill-opacity="1"><g transform="translate(240.361537, 94.973315)"><g><path d="M 20.613281 0.953125 C 31.648438 0.953125 38.183594 -4.25 38.183594 -13.003906 C 38.183594 -20.359375 33.425781 -24.671875 22.644531 -27.082031 C 16.933594 -28.351562 14.839844 -29.746094 14.839844 -32.03125 C 14.839844 -34.1875 16.746094 -35.519531 19.726562 -35.519531 C 23.277344 -35.519531 25.308594 -33.679688 25.308594 -30.316406 L 37.359375 -30.316406 C 37.359375 -39.449219 30.382812 -45.347656 19.472656 -45.347656 C 9.007812 -45.347656 2.535156 -40.148438 2.535156 -31.777344 C 2.535156 -24.292969 7.421875 -19.660156 17.441406 -17.757812 C 22.832031 -16.679688 25.433594 -15.03125 25.433594 -12.496094 C 25.433594 -10.273438 23.53125 -9.007812 20.421875 -9.007812 C 16.746094 -9.007812 14.589844 -10.972656 14.589844 -14.398438 L 2.21875 -14.398438 C 2.21875 -4.820312 9.070312 0.953125 20.613281 0.953125 Z M 20.613281 0.953125 "/></g></g></g><g fill="#000000" fill-opacity="1"><g transform="translate(280.888378, 94.973315)"><g><path d="M 4.695312 0 L 17.503906 0 L 17.503906 -44.398438 L 4.695312 -44.398438 Z M 4.695312 0 "/></g></g></g><g fill="#000000" fill-opacity="1"><g transform="translate(303.086186, 94.973315)"><g><path d="M 25.433594 0.953125 C 37.675781 0.953125 46.933594 -6.46875 48.839844 -17.757812 L 35.835938 -17.757812 C 34.25 -13.574219 30.507812 -10.910156 25.6875 -10.910156 C 19.472656 -10.910156 15.160156 -15.539062 15.160156 -22.199219 C 15.160156 -28.921875 19.535156 -33.488281 25.8125 -33.488281 C 30.445312 -33.488281 34.3125 -30.886719 35.644531 -26.894531 L 48.585938 -26.894531 C 46.300781 -38.117188 37.167969 -45.347656 25.308594 -45.347656 C 11.605469 -45.347656 2.15625 -35.898438 2.15625 -22.199219 C 2.15625 -8.5 11.605469 0.953125 25.433594 0.953125 Z M 25.433594 0.953125 "/></g></g></g></svg>